<svg width="16" height="16" viewBox="0 0 16 16" fill="none" xmlns="http://www.w3.org/2000/svg">
<rect width="16" height="16" rx="8" fill="#EB0000"/>
<path d="M8 4.5C8.21875 4.5 8.42188 4.625 8.53125 4.8125L11.9062 10.5625C12.0156 10.7656 12.0156 11 11.9062 11.1875C11.7969 11.3906 11.5938 11.5 11.375 11.5H4.625C4.39062 11.5 4.1875 11.3906 4.07812 11.1875C3.96875 11 3.96875 10.7656 4.07812 10.5625L7.45312 4.8125C7.5625 4.625 7.76562 4.5 8 4.5ZM8 6.5C7.78125 6.5 7.625 6.67188 7.625 6.875V8.625C7.625 8.84375 7.78125 9 8 9C8.20312 9 8.375 8.84375 8.375 8.625V6.875C8.375 6.67188 8.20312 6.5 8 6.5ZM8.5 10C8.5 9.73438 8.26562 9.5 8 9.5C7.71875 9.5 7.5 9.73438 7.5 10C7.5 10.2812 7.71875 10.5 8 10.5C8.26562 10.5 8.5 10.2812 8.5 10Z" fill="white"/>
</svg>
